<?xml version="1.0" standalone="no"?>
<!DOCTYPE svg PUBLIC "-//W3C//DTD SVG 20010904//EN"
 "http://www.w3.org/TR/2001/REC-SVG-20010904/DTD/svg10.dtd">
<svg version="1.0" xmlns="http://www.w3.org/2000/svg"
 width="434.000000pt" height="434.000000pt" viewBox="0 0 434.000000 434.000000"
 preserveAspectRatio="xMidYMid meet">
<metadata>
Created by potrace 1.14, written by Peter Selinger 2001-2017
</metadata>
<g transform="translate(0.000000,434.000000) scale(0.100000,-0.100000)"
fill="#000000" stroke="none">
<path d="M530 2987 c0 -771 4 -1336 9 -1368 6 -30 15 -99 21 -154 6 -55 18
-122 26 -150 7 -27 21 -79 29 -115 22 -88 61 -202 96 -277 16 -34 29 -64 29
-67 0 -8 116 -201 143 -239 43 -60 124 -153 175 -200 12 -12 39 -37 60 -55 20
-19 55 -46 77 -61 22 -14 42 -29 45 -32 13 -17 174 -105 228 -125 26 -10 52
-21 57 -25 16 -11 182 -58 262 -74 263 -51 606 -40 853 28 114 32 306 112 355
150 5 4 46 31 89 59 80 52 237 200 291 273 17 22 38 49 48 59 9 11 17 23 17
27 0 4 6 14 13 21 7 7 24 33 38 58 13 25 26 47 29 50 6 5 55 105 88 180 12 25
30 74 41 110 12 36 25 79 31 96 15 45 49 196 67 294 13 73 16 278 20 1468 l4
1382 -511 0 -510 0 0 -169 0 -169 45 -6 c136 -21 285 -122 362 -248 l36 -58
59 0 c53 0 59 -2 68 -25 5 -14 14 -25 20 -25 6 0 10 -72 10 -205 0 -168 -3
-205 -14 -205 -7 0 -16 -9 -19 -20 -4 -17 -14 -20 -69 -20 l-63 0 -30 -52
c-33 -58 -107 -136 -155 -164 l-30 -18 0 -688 c0 -718 -1 -734 -45 -860 -45
-127 -75 -175 -188 -301 -164 -184 -482 -284 -753 -237 -110 20 -259 90 -351
165 -50 40 -163 165 -163 179 0 3 -11 23 -24 44 -14 20 -32 57 -41 82 -9 25
-21 53 -26 63 -6 11 -17 53 -25 94 -11 60 -14 207 -14 768 l0 694 -32 22 c-58
41 -130 122 -155 175 -16 33 -18 34 -78 34 -56 0 -63 2 -83 30 -21 28 -22 39
-22 224 0 163 2 195 15 200 8 3 15 15 15 26 0 18 6 20 58 20 31 0 62 4 67 8 6
4 23 27 37 52 72 122 229 228 366 247 l42 6 0 168 0 169 -520 0 -520 0 0
-1313z"/>
<path d="M1475 3842 c-73 -27 -124 -62 -181 -125 -62 -67 -90 -124 -110 -224
-24 -115 -7 -211 53 -303 100 -151 226 -226 378 -224 69 1 90 5 155 36 102 47
183 128 241 238 19 37 24 64 27 150 4 93 1 113 -21 177 -39 110 -126 213 -209
247 -24 10 -52 23 -63 29 -11 6 -65 13 -120 14 -79 3 -111 -1 -150 -15z m299
-47 c149 -71 229 -209 228 -392 -1 -113 -31 -191 -106 -279 -164 -189 -454
-171 -609 38 -38 51 -77 178 -77 250 0 107 43 217 114 292 92 97 169 128 306
123 69 -3 96 -9 144 -32z"/>
<path d="M1504 3516 c-42 -42 -44 -46 -44 -105 0 -73 16 -110 66 -147 79 -60
190 -21 229 81 18 49 16 79 -9 139 -21 51 -68 76 -140 76 -56 0 -61 -2 -102
-44z m106 -49 c0 -18 -21 -37 -41 -37 -22 0 -33 16 -25 35 7 19 66 20 66 2z"/>
<path d="M2610 3854 c-164 -60 -252 -140 -304 -277 -45 -120 -41 -248 10 -354
33 -68 154 -193 205 -212 19 -7 52 -20 74 -29 26 -12 66 -17 120 -16 67 1 91
6 149 32 134 62 225 165 266 302 59 198 -49 432 -238 521 -58 28 -80 32 -167
35 -55 2 -107 1 -115 -2z m275 -64 c75 -38 136 -107 183 -207 24 -52 27 -69
27 -173 0 -89 -4 -126 -19 -165 -40 -105 -130 -194 -231 -231 -93 -33 -273
-17 -332 29 -89 71 -134 123 -164 195 -30 73 -31 80 -27 186 4 95 9 119 31
163 15 29 27 59 27 67 0 16 71 86 123 122 58 39 123 54 223 51 81 -3 99 -7
159 -37z"/>
<path d="M2628 3545 c-46 -25 -68 -74 -68 -149 0 -64 1 -67 40 -106 23 -23 52
-45 67 -51 56 -21 146 20 178 81 17 33 20 116 5 154 -10 28 -39 59 -69 75 -28
16 -121 13 -153 -4z m142 -90 c0 -27 -26 -35 -48 -13 -21 21 -13 38 18 38 25
0 30 -4 30 -25z"/>
</g>
</svg>
