<?xml version="1.0" standalone="no"?>
<!DOCTYPE svg PUBLIC "-//W3C//DTD SVG 20010904//EN"
 "http://www.w3.org/TR/2001/REC-SVG-20010904/DTD/svg10.dtd">
<svg version="1.0" xmlns="http://www.w3.org/2000/svg"
 width="164.000000pt" height="164.000000pt" viewBox="0 0 164.000000 164.000000"
 preserveAspectRatio="xMidYMid meet">
<metadata>
Created by potrace 1.11, written by Peter Selinger 2001-2013
</metadata>
<g transform="translate(0.000000,164.000000) scale(0.100000,-0.100000)"
fill="#000000" stroke="none">
<path d="M675 1625 c-75 -14 -161 -42 -216 -70 -105 -55 -225 -153 -280 -232
-16 -23 -36 -49 -45 -57 -8 -9 -17 -25 -19 -37 -2 -12 -9 -27 -15 -35 -7 -7
-8 -19 -4 -25 4 -7 3 -9 -3 -6 -25 15 -81 -158 -88 -270 -2 -27 2 -43 9 -44
65 -6 156 -7 157 -1 0 4 2 16 5 27 2 11 6 36 8 55 2 19 8 49 12 65 4 17 8 42
8 57 1 14 4 24 8 22 4 -3 10 8 14 23 15 63 143 213 234 274 108 73 276 116
410 106 72 -6 210 -41 220 -57 3 -4 24 -16 47 -27 92 -41 237 -196 283 -301
12 -26 26 -50 33 -54 9 -6 9 -10 0 -16 -17 -11 1 -37 18 -26 12 6 12 5 1 -8
-11 -13 -10 -23 2 -52 8 -20 11 -36 5 -36 -12 0 -12 -33 0 -46 6 -5 41 -8 79
-6 l70 4 5 31 c2 18 1 37 -3 42 -4 6 -8 17 -8 25 -6 87 -9 101 -30 116 -12 8
-20 19 -17 24 10 16 -33 119 -79 188 -54 81 -140 169 -216 220 -172 117 -403
165 -605 127z"/>
<path d="M750 1311 c-80 -7 -205 -58 -217 -87 -3 -8 -11 -14 -18 -14 -21 0
-135 -132 -135 -158 0 -7 -6 -20 -14 -27 -22 -22 -46 -148 -42 -222 4 -80 34
-193 53 -200 7 -3 10 -9 7 -14 -3 -6 0 -16 6 -24 10 -12 17 -5 41 46 36 75 36
83 3 75 -23 -6 -25 -5 -18 16 17 56 76 156 113 194 44 44 125 88 181 98 19 3
98 8 175 11 77 3 144 10 149 15 6 6 21 10 35 10 29 0 91 21 91 31 0 4 12 10
26 13 24 6 26 10 20 44 -4 28 -17 47 -53 79 -48 41 -139 93 -165 93 -8 0 -18
4 -24 9 -13 14 -126 20 -214 12z"/>
<path d="M1190 992 c-24 -31 -43 -61 -41 -67 1 -5 -1 -7 -5 -2 -4 4 -20 -4
-34 -18 -15 -14 -60 -37 -100 -51 -60 -20 -91 -24 -193 -24 -67 0 -140 -5
-162 -11 -22 -5 -48 -12 -59 -14 -48 -11 -126 -71 -126 -97 0 -24 10 -23 56
10 33 24 79 39 176 57 28 5 30 -11 3 -23 -34 -16 -33 -49 3 -59 15 -5 70 -8
122 -7 77 0 110 5 170 27 41 15 76 31 78 37 2 5 8 10 14 10 6 0 27 14 48 30
21 17 40 30 43 30 2 0 2 -13 -2 -28 -6 -29 -118 -192 -132 -192 -4 0 -15 -8
-25 -17 -9 -10 -23 -18 -31 -19 -8 -1 -26 -11 -41 -21 -41 -27 -256 -29 -310
-2 -70 36 -104 42 -144 26 -45 -19 -58 -59 -30 -96 56 -77 231 -151 355 -151
102 0 258 55 291 102 9 12 16 18 16 13 0 -17 73 61 112 120 59 90 82 177 75
289 -5 105 -38 206 -65 206 -9 0 -37 -26 -62 -58z"/>
<path d="M1473 783 c-3 -6 -2 -17 2 -23 3 -5 3 -15 -1 -22 -4 -6 -8 -29 -9
-50 -2 -28 2 -38 14 -40 9 0 28 -2 42 -3 14 -1 41 -9 59 -19 25 -12 36 -13 44
-5 8 8 7 13 -2 16 -6 3 -9 10 -5 16 4 7 8 25 9 42 0 17 4 39 7 50 4 11 3 25
-1 31 -10 17 -153 23 -159 7z"/>
<path d="M9 778 c-1 -7 -1 -17 0 -22 1 -5 4 -27 6 -49 14 -129 96 -302 202
-423 110 -126 300 -234 458 -259 22 -4 47 -9 55 -12 29 -9 176 -3 247 11 79
16 194 59 235 88 l27 19 -36 59 c-20 33 -39 62 -42 65 -4 2 -30 -7 -58 -20
-123 -59 -314 -81 -433 -50 -187 48 -364 190 -432 345 -23 52 -58 157 -58 174
0 6 -5 28 -11 49 l-10 37 -74 0 c-53 0 -75 -4 -76 -12z"/>
</g>
</svg>
